<svg version="1.1" viewBox="0.0 0.0 137.70078740157481 150.0" fill="none" stroke="none" stroke-linecap="square" stroke-miterlimit="10" xmlns:xlink="http://www.w3.org/1999/xlink" xmlns="http://www.w3.org/2000/svg"><clipPath id="p.0"><path d="m0 0l137.70079 0l0 150.0l-137.70079 0l0 -150.0z" clip-rule="nonzero"/></clipPath><g clip-path="url(#p.0)"><path fill="#000000" fill-opacity="0.0" d="m0 0l137.70079 0l0 150.0l-137.70079 0z" fill-rule="evenodd"/><path fill="#000000" fill-opacity="0.0" d="m-16.091211 -76.26793l214.67717 0l0 65.76378l-214.67717 0z" fill-rule="evenodd"/><path fill="#ffffff" d="m87.330666 149.33208l-31.734375 0l0 -121.71875q0 -1.8125 -1.25 -3.171875q-1.234375 -1.359375 -3.046875 -1.359375l-12.25 0q-1.8125 0 -3.0625 1.359375q-1.234375 1.359375 -1.234375 3.171875l0 121.71875l-31.734377 0l0 -119.0q0 -29.90625 28.109375 -29.90625l28.093752 0q28.109375 0 28.109375 29.90625l0 119.0z" fill-rule="nonzero"/><path fill="#000000" fill-opacity="0.0" d="m75.32281 -116.80251l58.04725 0l0 32.44095l-58.04725 0z" fill-rule="evenodd"/><path fill="#ffffff" d="m98.27593 118.69436q0 -7.609375 5.3125 -12.921875q5.328125 -5.328125 12.921875 -5.328125q7.59375 0 12.906242 5.328125q5.328125 5.3125 5.328125 12.921875q0 7.59375 -5.328125 12.921883q-5.3124924 5.3125 -12.906242 5.3125q-7.59375 0 -12.921875 -5.3125q-5.3125 -5.3281326 -5.3125 -12.921883zm0 -87.390625q0 -7.609375 5.3125 -12.921875q5.328125 -5.328125 12.921875 -5.328125q7.59375 0 12.906242 5.328125q5.328125 5.3125 5.328125 12.921875q0 7.59375 -5.328125 12.921875q-5.3124924 5.3125 -12.906242 5.3125q-7.59375 0 -12.921875 -5.3125q-5.3125 -5.328125 -5.3125 -12.921875z" fill-rule="nonzero"/></g></svg>