<svg version="1.1" viewBox="0.0 0.0 660.0 200.0" fill="none" stroke="none" stroke-linecap="square" stroke-miterlimit="10" xmlns:xlink="http://www.w3.org/1999/xlink" xmlns="http://www.w3.org/2000/svg"><clipPath id="p.0"><path d="m0 0l660.0 0l0 200.0l-660.0 0l0 -200.0z" clip-rule="nonzero"/></clipPath><g clip-path="url(#p.0)"><path fill="#000000" fill-opacity="0.0" d="m0 0l660.0 0l0 200.0l-660.0 0z" fill-rule="evenodd"/><path fill="#2196f3" d="m0 33.313004l0 0c0 -18.415659 14.928841 -33.3445 33.344498 -33.3445l593.3425 0c8.843506 0 17.32483 3.513071 23.578125 9.766377c6.253296 6.2533064 9.766357 14.734611 9.766357 23.578121l0 133.374c0 18.415665 -14.928833 33.344498 -33.344482 33.344498l-593.3425 0c-18.415657 0 -33.344498 -14.928833 -33.344498 -33.344498z" fill-rule="evenodd"/><path fill="#000000" fill-opacity="0.0" d="m10.194236 -262.3622l591.3701 0l0 102.17323l-591.3701 0z" fill-rule="evenodd"/><path fill="#ffffff" d="m106.35668 31.222786q28.437492 0 28.437492 30.265625l0 29.59375q0 30.265625 -28.437492 30.265625l-25.90625 0l0 58.250008l-32.109375 0l0 -148.375l58.015625 0zm-3.65625 63.53125l0 -36.921875q0 -1.84375 -1.265625 -3.21875q-1.265625 -1.375 -3.09375 -1.375l-17.890625 0l0 46.09375l17.890625 0q1.828125 0 3.09375 -1.375q1.265625 -1.375 1.265625 -3.203125zm80.26473 24.078125l0 60.765633l-32.109375 0l0 -148.375l57.09375 0q28.4375 0 28.4375 30.265625l0 17.203125q0 18.34375 -13.0625 23.390625q11.46875 4.125 11.46875 18.8125l0 58.703133l-32.109375 0l0 -56.187508q0 -4.578125 -4.359375 -4.578125l-15.359375 0zm0 -65.828125l0 43.34375l16.96875 0q1.828125 0 3.09375 -1.375q1.265625 -1.375 1.265625 -3.203125l0 -34.171875q0 -1.84375 -1.265625 -3.21875q-1.265625 -1.375 -3.09375 -1.375l-16.96875 0zm133.0071 -24.078125q28.4375 0 28.4375 30.28125l0 120.39063l-32.109375 0l0 -49.765625l-23.15625 0l0 49.765625l-32.109406 0l0 -120.39063q0 -30.28125 28.43753 -30.28125l30.5 0zm-26.828125 76.140625l23.15625 0l0 -49.765625q0 -1.828125 -1.265625 -3.203125q-1.25 -1.375 -3.09375 -1.375l-14.453125 0q-1.828125 0 -3.09375 1.375q-1.25 1.375 -1.25 3.203125l0 49.765625zm164.1929 74.53126l-32.109375 0l0 -123.15626q0 -1.828125 -1.265625 -3.203125q-1.25 -1.375 -3.09375 -1.375l-12.375 0q-1.84375 0 -3.109375 1.375q-1.25 1.375 -1.25 3.203125l0 123.15626l-32.109375 0l0 -120.39063q0 -30.28125 28.4375 -30.28125l28.4375 0q28.4375 0 28.4375 30.28125l0 120.39063zm80.49695 -150.67188q28.4375 0 28.4375 30.28125l0 120.39063l-32.109375 0l0 -49.765625l-23.15625 0l0 49.765625l-32.109375 0l0 -120.39063q0 -30.28125 28.4375 -30.28125l30.5 0zm-26.828125 76.140625l23.15625 0l0 -49.765625q0 -1.828125 -1.265625 -3.203125q-1.25 -1.375 -3.09375 -1.375l-14.453125 0q-1.828125 0 -3.09375 1.375q-1.25 1.375 -1.25 3.203125l0 49.765625z" fill-rule="nonzero"/><path fill="#000000" fill-opacity="0.0" d="m553.5201 -95.170166l138.96063 0l0 43.33858l-138.96063 0z" fill-rule="evenodd"/><path fill="#ffffff" d="m585.30133 146.9386q0 -7.53125 5.265625 -12.796875q5.265625 -5.265625 12.78125 -5.265625q7.53125 0 12.796875 5.265625q5.265625 5.265625 5.265625 12.796875q0 7.515625 -5.265625 12.78125q-5.265625 5.25 -12.796875 5.25q-7.515625 0 -12.78125 -5.25q-5.265625 -5.265625 -5.265625 -12.78125zm0 -86.484375q0 -7.515625 5.265625 -12.78125q5.265625 -5.265625 12.78125 -5.265625q7.53125 0 12.796875 5.265625q5.265625 5.265625 5.265625 12.78125q0 7.515625 -5.265625 12.78125q-5.265625 5.265625 -12.796875 5.265625q-7.515625 0 -12.78125 -5.265625q-5.265625 -5.265625 -5.265625 -12.78125z" fill-rule="nonzero"/></g></svg>