<svg version="1.1" viewBox="0.0 0.0 594.0 160.0" fill="none" stroke="none" stroke-linecap="square" stroke-miterlimit="10" xmlns:xlink="http://www.w3.org/1999/xlink" xmlns="http://www.w3.org/2000/svg"><clipPath id="p.0"><path d="m0 0l594.0 0l0 160.0l-594.0 0l0 -160.0z" clip-rule="nonzero"/></clipPath><g clip-path="url(#p.0)"><path fill="#000000" fill-opacity="0.0" d="m0 0l594.0 0l0 160.0l-594.0 0z" fill-rule="evenodd"/><path fill="#000000" fill-opacity="0.0" d="m-28.412073 -242.21371l590.04724 0l0 81.76378l-590.04724 0z" fill-rule="evenodd"/><path fill="#ffffff" d="m61.2851 3.818757q29.265629 0 29.265629 31.140625l0 30.453125q0 31.15625 -29.265629 31.15625l-26.65625 0l0 59.9375l-33.046875 0l0 -152.6875l59.703125 0zm-3.765625 65.375l0 -38.0q0 -1.890625 -1.296875 -3.296875q-1.296875 -1.421875 -3.1875 -1.421875l-18.40625 0l0 47.4375l18.40625 0q1.890625 0 3.1875 -1.421875q1.296875 -1.421875 1.296875 -3.296875zm82.59978 24.765625l0 62.546875l-33.046867 0l0 -152.6875l58.765617 0q29.265625 0 29.265625 31.140625l0 17.703125q0 18.890625 -13.453125 24.078125q11.796875 4.25 11.796875 19.34375l0 60.421875l-33.03125 0l0 -57.8125q0 -4.734375 -4.484375 -4.734375l-15.8125 0zm0 -67.71875l0 44.59375l17.453125 0q1.890625 0 3.1875 -1.40625q1.296875 -1.421875 1.296875 -3.3125l0 -35.15625q0 -1.890625 -1.296875 -3.296875q-1.296875 -1.421875 -3.1875 -1.421875l-17.453125 0zm136.87743 -24.78125q29.265625 0 29.265625 31.140625l0 123.90625l-33.046875 0l0 -51.21875l-23.828125 0l0 51.21875l-33.04689 0l0 -123.90625q0 -31.140625 29.26564 -31.140625l31.390625 0zm-27.609375 78.34375l23.828125 0l0 -51.203125q0 -1.890625 -1.296875 -3.296875q-1.296875 -1.421875 -3.1875 -1.421875l-14.859375 0q-1.890625 0 -3.1875 1.421875q-1.296875 1.40625 -1.296875 3.296875l0 51.203125zm168.97565 76.703125l-33.046875 0l0 -126.734375q0 -1.890625 -1.296875 -3.296875q-1.296875 -1.421875 -3.1875 -1.421875l-12.734375 0q-1.890625 0 -3.1875 1.421875q-1.296875 1.40625 -1.296875 3.296875l0 126.734375l-33.046875 0l0 -123.90625q0 -31.140625 29.265625 -31.140625l29.265625 0q29.265625 0 29.265625 31.140625l0 123.90625zm82.83374 -155.04688q29.265656 0 29.265656 31.140625l0 123.90625l-33.046906 0l0 -51.21875l-23.828094 0l0 51.21875l-33.046875 0l0 -123.90625q0 -31.140625 29.265625 -31.140625l31.390594 0zm-27.609344 78.34375l23.828094 0l0 -51.203125q0 -1.890625 -1.296875 -3.296875q-1.296875 -1.421875 -3.1875 -1.421875l-14.8593445 0q-1.890625 0 -3.1875 1.421875q-1.296875 1.40625 -1.296875 3.296875l0 51.203125z" fill-rule="nonzero"/><path fill="#000000" fill-opacity="0.0" d="m511.55127 -109.58701l125.07086 0l0 34.67717l-125.07086 0z" fill-rule="evenodd"/><path fill="#ffffff" d="m542.3325 131.52176q0 -7.5312576 5.265625 -12.796883q5.265625 -5.265625 12.78125 -5.265625q7.53125 0 12.796875 5.265625q5.265625 5.265625 5.265625 12.796883q0 7.515625 -5.265625 12.78125q-5.265625 5.25 -12.796875 5.25q-7.515625 0 -12.78125 -5.25q-5.265625 -5.265625 -5.265625 -12.78125zm0 -86.484375q0 -7.515625 5.265625 -12.78125q5.265625 -5.265627 12.78125 -5.265627q7.53125 0 12.796875 5.265627q5.265625 5.265625 5.265625 12.78125q0 7.515625 -5.265625 12.78125q-5.265625 5.265625 -12.796875 5.265625q-7.515625 0 -12.78125 -5.265625q-5.265625 -5.265625 -5.265625 -12.78125z" fill-rule="nonzero"/></g></svg>