<svg version="1.1" viewBox="0.0 0.0 960.0 720.0" fill="none" stroke="none" stroke-linecap="square" stroke-miterlimit="10" xmlns:xlink="http://www.w3.org/1999/xlink" xmlns="http://www.w3.org/2000/svg"><clipPath id="p.0"><path d="m0 0l960.0 0l0 720.0l-960.0 0l0 -720.0z" clip-rule="nonzero"/></clipPath><g clip-path="url(#p.0)"><path fill="#000000" fill-opacity="0.0" d="m0 0l960.0 0l0 720.0l-960.0 0z" fill-rule="evenodd"/><path fill="#2196f3" d="m129.68767 267.7173l0 0c0 -20.868362 16.91716 -37.785522 37.785522 -37.785522l588.20844 0c10.021362 0 19.632263 3.980957 26.718445 11.067123c7.0861206 7.0861664 11.067078 16.697067 11.067078 26.7184l0 151.1376c0 20.868378 -16.917114 37.785522 -37.785522 37.785522l-588.20844 0c-20.868362 0 -37.785522 -16.917145 -37.785522 -37.785522z" fill-rule="evenodd"/><path stroke="#2196f3" stroke-width="1.0" stroke-linejoin="round" stroke-linecap="butt" d="m129.68767 267.7173l0 0c0 -20.868362 16.91716 -37.785522 37.785522 -37.785522l588.20844 0c10.021362 0 19.632263 3.980957 26.718445 11.067123c7.0861206 7.0861664 11.067078 16.697067 11.067078 26.7184l0 151.1376c0 20.868378 -16.917114 37.785522 -37.785522 37.785522l-588.20844 0c-20.868362 0 -37.785522 -16.917145 -37.785522 -37.785522z" fill-rule="evenodd"/><path fill="#000000" fill-opacity="0.0" d="m72.120735 183.07349l749.0079 0l0 226.70868l-749.0079 0z" fill-rule="evenodd"/><path fill="#ffffff" d="m237.82901 267.19223q29.75 0 29.75 31.6875l0 30.953125q0 31.6875 -29.75 31.6875l-27.125 0l0 60.953125l-33.59375 0l0 -155.28125l60.71875 0zm-3.84375 66.484375l0 -38.640625q0 -1.921875 -1.328125 -3.359375q-1.3125 -1.4375 -3.234375 -1.4375l-18.71875 0l0 48.234375l18.71875 0q1.921875 0 3.234375 -1.4375q1.328125 -1.4375 1.328125 -3.359375zm83.99313 25.203125l0 63.59375l-33.59375 0l0 -155.28125l59.765625 0q29.75 0 29.75 31.6875l0 18.0q0 19.1875 -13.671875 24.46875q12.0 4.328125 12.0 19.6875l0 61.4375l-33.609375 0l0 -58.796875q0 -4.796875 -4.546875 -4.796875l-16.09375 0zm0 -68.890625l0 45.359375l17.765625 0q1.921875 0 3.234375 -1.4375q1.328125 -1.4375 1.328125 -3.359375l0 -35.765625q0 -1.90625 -1.328125 -3.34375q-1.3125 -1.453125 -3.234375 -1.453125l-17.765625 0zm139.21375 -25.203125q29.75 0 29.75 31.6875l0 126.0l-33.59375 0l0 -52.078125l-24.25 0l0 52.078125l-33.59375 0l0 -126.0q0 -31.6875 29.765625 -31.6875l31.921875 0zm-28.09375 79.6875l24.25 0l0 -52.078125q0 -1.921875 -1.328125 -3.359375q-1.3125 -1.4375 -3.234375 -1.4375l-15.125 0q-1.921875 0 -3.25 1.4375q-1.3125 1.4375 -1.3125 3.359375l0 52.078125zm171.85315 78.0l-33.609375 0l0 -128.875q0 -1.921875 -1.328125 -3.359375q-1.3125 -1.453125 -3.234375 -1.453125l-12.953125 0q-1.921875 0 -3.25 1.453125q-1.3125 1.4375 -1.3125 3.359375l0 128.875l-33.59375 0l0 -126.0q0 -31.6875 29.75 -31.6875l29.765625 0q29.765625 0 29.765625 31.6875l0 126.0zm84.2406 -157.6875q29.75 0 29.75 31.6875l0 126.0l-33.59375 0l0 -52.078125l-24.25 0l0 52.078125l-33.59375 0l0 -126.0q0 -31.6875 29.765625 -31.6875l31.921875 0zm-28.09375 79.6875l24.25 0l0 -52.078125q0 -1.921875 -1.328125 -3.359375q-1.3125 -1.4375 -3.234375 -1.4375l-15.125 0q-1.921875 0 -3.25 1.4375q-1.3125 1.4375 -1.3125 3.359375l0 52.078125z" fill-rule="nonzero"/><path fill="#000000" fill-opacity="0.0" d="m650.937 169.96063l202.20471 0l0 155.9685l-202.20471 0z" fill-rule="evenodd"/><path fill="#ffffff" d="m735.71564 394.48563q0 -7.203125 5.03125 -12.234375q5.046875 -5.046875 12.25 -5.046875q7.203125 0 12.234375 5.046875q5.046875 5.03125 5.046875 12.234375q0 7.1875 -5.046875 12.234375q-5.03125 5.046875 -12.234375 5.046875q-7.203125 0 -12.25 -5.046875q-5.03125 -5.046875 -5.03125 -12.234375zm0 -82.796875q0 -7.203125 5.03125 -12.234375q5.046875 -5.046875 12.25 -5.046875q7.203125 0 12.234375 5.046875q5.046875 5.03125 5.046875 12.234375q0 7.1875 -5.046875 12.234375q-5.03125 5.03125 -12.234375 5.03125q-7.203125 0 -12.25 -5.03125q-5.03125 -5.046875 -5.03125 -12.234375z" fill-rule="nonzero"/></g></svg>