<svg version="1.1" viewBox="0.0 0.0 200.0 100.0" fill="none" stroke="none" stroke-linecap="square" stroke-miterlimit="10" xmlns:xlink="http://www.w3.org/1999/xlink" xmlns="http://www.w3.org/2000/svg"><clipPath id="p.0"><path d="m0 0l200.0 0l0 100.0l-200.0 0l0 -100.0z" clip-rule="nonzero"/></clipPath><g clip-path="url(#p.0)"><path fill="#000000" fill-opacity="0.0" d="m0 0l200.0 0l0 100.0l-200.0 0z" fill-rule="evenodd"/><path fill="#2196f3" d="m24.307196 36.45005l0 0c0 -3.8153343 3.0929394 -6.9082737 6.9082756 -6.9082737l131.38031 0c1.8321838 0 3.589325 0.7278328 4.8848877 2.023386c1.2955475 1.2955513 2.0233765 3.0527 2.0233765 4.8848877l0 27.63227c0 3.8153305 -3.0929413 6.908272 -6.908264 6.908272l-131.38031 0c-3.8153362 0 -6.9082756 -3.0929413 -6.9082756 -6.908272z" fill-rule="evenodd"/><path stroke="#2196f3" stroke-width="1.0" stroke-linejoin="round" stroke-linecap="butt" d="m24.307196 36.45005l0 0c0 -3.8153343 3.0929394 -6.9082737 6.9082756 -6.9082737l131.38031 0c1.8321838 0 3.589325 0.7278328 4.8848877 2.023386c1.2955475 1.2955513 2.0233765 3.0527 2.0233765 4.8848877l0 27.63227c0 3.8153305 -3.0929413 6.908272 -6.908264 6.908272l-131.38031 0c-3.8153362 0 -6.9082756 -3.0929413 -6.9082756 -6.908272z" fill-rule="evenodd"/><path fill="#000000" fill-opacity="0.0" d="m14.69182 -58.73994l156.0315 0l0 51.05512l-156.0315 0z" fill-rule="evenodd"/><path fill="#ffffff" d="m43.98182 31.625683q6.953125 0 6.953125 7.390625l0 7.234375q0 7.390625 -6.953125 7.390625l-6.328125 0l0 14.218746l-7.828123 0l0 -36.23437l14.156248 0zm-0.890625 15.515625l0 -9.015625q0 -0.453125 -0.3125 -0.78125q-0.296875 -0.34375 -0.75 -0.34375l-4.375 0l0 11.265625l4.375 0q0.453125 0 0.75 -0.328125q0.3125 -0.34375 0.3125 -0.796875zm19.600998 5.875l0 14.843746l-7.84375 0l0 -36.23437l13.953125 0q6.9375 0 6.9375 7.390625l0 4.203125q0 4.484375 -3.1875 5.71875q2.796875 1.0 2.796875 4.578125l0 14.343746l-7.84375 0l0 -13.718746q0 -1.125 -1.0625 -1.125l-3.75 0zm0 -16.0625l0 10.578125l4.140625 0q0.453125 0 0.75 -0.328125q0.3125 -0.34375 0.3125 -0.796875l0 -8.34375q0 -0.4375 -0.3125 -0.765625q-0.296875 -0.34375 -0.75 -0.34375l-4.140625 0zm32.47487 -5.890625q6.953125 0 6.953125 7.390625l0 29.406246l-7.84375 0l0 -12.156246l-5.65625 0l0 12.156246l-7.84375 0l0 -29.406246q0 -7.390625 6.953125 -7.390625l7.4375 0zm-6.546875 18.59375l5.65625 0l0 -12.15625q0 -0.4375 -0.3125 -0.765625q-0.296875 -0.34375 -0.75 -0.34375l-3.53125 0q-0.453125 0 -0.765625 0.34375q-0.296875 0.328125 -0.296875 0.765625l0 12.15625zm40.09751 18.203121l-7.8437576 0l0 -30.078121q0 -0.4375 -0.3125 -0.765625q-0.296875 -0.34375 -0.75 -0.34375l-3.03125 0q-0.4375 0 -0.75 0.34375q-0.3125 0.328125 -0.3125 0.765625l0 30.078121l-7.828125 0l0 -29.406246q0 -7.390625 6.9375 -7.390625l6.9375 0q6.9531326 0 6.9531326 7.390625l0 29.406246zm19.649353 -36.79687q6.953125 0 6.953125 7.390625l0 29.406246l-7.84375 0l0 -12.156246l-5.6562347 0l0 12.156246l-7.84375 0l0 -29.406246q0 -7.390625 6.953125 -7.390625l7.4374847 0zm-6.5468597 18.59375l5.6562347 0l0 -12.15625q0 -0.4375 -0.3125 -0.765625q-0.296875 -0.34375 -0.75 -0.34375l-3.53125 0q-0.45310974 0 -0.76560974 0.34375q-0.296875 0.328125 -0.296875 0.765625l0 12.15625z" fill-rule="nonzero"/><path fill="#000000" fill-opacity="0.0" d="m140.61188 5.27231l42.11023 0l0 21.66929l-42.11023 0z" fill-rule="evenodd"/><path fill="#ffffff" d="m157.85187 60.563557q0 -1.6875 1.171875 -2.859375q1.1875 -1.171875 2.859375 -1.171875q1.6875 0 2.859375 1.171875q1.1875 1.171875 1.1875 2.859375q0 1.671875 -1.1875 2.859375q-1.171875 1.1718788 -2.859375 1.1718788q-1.671875 0 -2.859375 -1.1718788q-1.171875 -1.1875 -1.171875 -2.859375zm0 -19.3125q0 -1.6875 1.171875 -2.859375q1.1875 -1.1875 2.859375 -1.1875q1.6875 0 2.859375 1.1875q1.1875 1.171875 1.1875 2.859375q0 1.671875 -1.1875 2.84375q-1.171875 1.171875 -2.859375 1.171875q-1.671875 0 -2.859375 -1.171875q-1.171875 -1.171875 -1.171875 -2.84375z" fill-rule="nonzero"/></g></svg>