<svg version="1.1" viewBox="0.0 0.0 960.0 480.0" fill="none" stroke="none" stroke-linecap="square" stroke-miterlimit="10" xmlns:xlink="http://www.w3.org/1999/xlink" xmlns="http://www.w3.org/2000/svg"><clipPath id="p.0"><path d="m0 0l960.0 0l0 480.0l-960.0 0l0 -480.0z" clip-rule="nonzero"/></clipPath><g clip-path="url(#p.0)"><path fill="#000000" fill-opacity="0.0" d="m0 0l960.0 0l0 480.0l-960.0 0z" fill-rule="evenodd"/><path fill="#2196f3" d="m116.67454 174.95079l0 0c0 -18.30838 14.841881 -33.15027 33.150276 -33.15027l630.70734 0c8.791992 0 17.223877 3.4926147 23.440735 9.709488c6.216919 6.2168884 9.709534 14.648788 9.709534 23.44078l0 132.59709c0 18.30841 -14.841919 33.15027 -33.15027 33.15027l-630.70734 0c-18.308395 0 -33.150276 -14.841858 -33.150276 -33.15027z" fill-rule="evenodd"/><path stroke="#2196f3" stroke-width="1.0" stroke-linejoin="round" stroke-linecap="butt" d="m116.67454 174.95079l0 0c0 -18.30838 14.841881 -33.15027 33.150276 -33.15027l630.70734 0c8.791992 0 17.223877 3.4926147 23.440735 9.709488c6.216919 6.2168884 9.709534 14.648788 9.709534 23.44078l0 132.59709c0 18.30841 -14.841919 33.15027 -33.15027 33.15027l-630.70734 0c-18.308395 0 -33.150276 -14.841858 -33.150276 -33.15027z" fill-rule="evenodd"/><path fill="#000000" fill-opacity="0.0" d="m70.52074 -281.95172l748.9764 0l0 245.07088l-748.9764 0z" fill-rule="evenodd"/><path fill="#ffffff" d="m213.01915 154.47699q33.0625 0 33.0625 35.203125l0 34.40625q0 35.1875 -33.0625 35.1875l-30.140625 0l0 67.734375l-37.328125 0l0 -172.53125l67.46875 0zm-4.265625 73.875l0 -42.9375q0 -2.140625 -1.46875 -3.734375q-1.46875 -1.59375 -3.59375 -1.59375l-20.8125 0l0 53.59375l20.8125 0q2.125 0 3.59375 -1.59375q1.46875 -1.609375 1.46875 -3.734375zm93.334885 28.0l0 70.65625l-37.34375 0l0 -172.53125l66.40625 0q33.0625 0 33.0625 35.203125l0 20.0q0 21.328125 -15.203125 27.203125q13.328125 4.796875 13.328125 21.859375l0 68.265625l-37.328125 0l0 -65.328125q0 -5.328125 -5.0625 -5.328125l-17.859375 0zm0 -76.53125l0 50.390625l19.71875 0q2.140625 0 3.609375 -1.59375q1.46875 -1.609375 1.46875 -3.734375l0 -39.734375q0 -2.140625 -1.46875 -3.734375q-1.46875 -1.59375 -3.609375 -1.59375l-19.71875 0zm154.64929 -28.0q33.0625 0 33.0625 35.1875l0 140.0l-37.328125 0l0 -57.859375l-26.921875 0l0 57.859375l-37.34375 0l0 -140.0q0 -35.1875 33.0625 -35.1875l35.46875 0zm-31.1875 88.53125l26.921875 0l0 -57.875q0 -2.125 -1.46875 -3.71875q-1.46875 -1.609375 -3.59375 -1.609375l-16.796875 0q-2.140625 0 -3.609375 1.609375q-1.453125 1.59375 -1.453125 3.71875l0 57.875zm190.92203 86.65625l-37.328125 0l0 -143.1875q0 -2.140625 -1.46875 -3.734375q-1.46875 -1.609375 -3.609375 -1.609375l-14.390625 0q-2.140625 0 -3.609375 1.609375q-1.46875 1.59375 -1.46875 3.734375l0 143.1875l-37.328125 0l0 -140.0q0 -35.1875 33.0625 -35.1875l33.078125 0q33.0625 0 33.0625 35.1875l0 140.0zm93.58887 -175.1875q33.0625 0 33.0625 35.1875l0 140.0l-37.328125 0l0 -57.859375l-26.921875 0l0 57.859375l-37.34375 0l0 -140.0q0 -35.1875 33.0625 -35.1875l35.46875 0zm-31.1875 88.53125l26.921875 0l0 -57.875q0 -2.125 -1.46875 -3.71875q-1.46875 -1.609375 -3.59375 -1.609375l-16.796875 0q-2.140625 0 -3.609375 1.609375q-1.453125 1.59375 -1.453125 3.71875l0 57.875z" fill-rule="nonzero"/><path fill="#000000" fill-opacity="0.0" d="m674.937 25.307087l202.20471 0l0 103.968506l-202.20471 0z" fill-rule="evenodd"/><path fill="#ffffff" d="m757.9084 288.77585q0 -8.0 5.59375 -13.59375q5.609375 -5.609375 13.609375 -5.609375q8.0 0 13.59375 5.609375q5.59375 5.59375 5.59375 13.59375q0 8.0 -5.59375 13.609375q-5.59375 5.59375 -13.59375 5.59375q-8.0 0 -13.609375 -5.59375q-5.59375 -5.609375 -5.59375 -13.609375zm0 -92.000015q0 -8.0 5.59375 -13.59375q5.609375 -5.609375 13.609375 -5.609375q8.0 0 13.59375 5.609375q5.59375 5.59375 5.59375 13.59375q0 8.0 -5.59375 13.609375q-5.59375 5.59375 -13.59375 5.59375q-8.0 0 -13.609375 -5.59375q-5.59375 -5.609375 -5.59375 -13.609375z" fill-rule="nonzero"/></g></svg>