<svg version="1.1" viewBox="0.0 0.0 70.0 70.0" fill="none" stroke="none" stroke-linecap="square" stroke-miterlimit="10" xmlns:xlink="http://www.w3.org/1999/xlink" xmlns="http://www.w3.org/2000/svg"><clipPath id="p.0"><path d="m0 0l70.0 0l0 70.0l-70.0 0l0 -70.0z" clip-rule="nonzero"/></clipPath><g clip-path="url(#p.0)"><path fill="#000000" fill-opacity="0.0" d="m0 0l70.0 0l0 70.0l-70.0 0z" fill-rule="evenodd"/><path fill="#000000" fill-opacity="0.0" d="m5.083202 -34.24801l109.22835 0l0 30.740156l-109.22835 0z" fill-rule="evenodd"/><path fill="#ffffff" d="m31.661327 53.231987l-7.84375 0l0 -30.078127q0 -0.4375 -0.3125 -0.765625q-0.296875 -0.34375 -0.75 -0.34375l-3.03125 0q-0.4375 0 -0.75 0.34375q-0.3125 0.328125 -0.3125 0.765625l0 30.078127l-7.828125 0l0 -29.406252q0 -7.390625 6.9375 -7.390625l6.9375 0q6.953125 0 6.953125 7.390625l0 29.406252z" fill-rule="nonzero"/><path fill="#000000" fill-opacity="0.0" d="m25.537237 -7.0411415l29.480314 0l0 15.149606l-29.480314 0z" fill-rule="evenodd"/><path fill="#ffffff" d="m36.46227 46.250107q0 -1.6875 1.171875 -2.859375q1.1875 -1.171875 2.859375 -1.171875q1.6875038 0 2.8593788 1.171875q1.1875 1.171875 1.1875 2.859375q0 1.671875 -1.1875 2.859375q-1.171875 1.171875 -2.8593788 1.171875q-1.671875 0 -2.859375 -1.171875q-1.171875 -1.1875 -1.171875 -2.859375zm0 -19.3125q0 -1.6875 1.171875 -2.859375q1.1875 -1.1875 2.859375 -1.1875q1.6875038 0 2.8593788 1.1875q1.1875 1.171875 1.1875 2.859375q0 1.671875 -1.1875 2.84375q-1.171875 1.171875 -2.8593788 1.171875q-1.671875 0 -2.859375 -1.171875q-1.171875 -1.171875 -1.171875 -2.84375z" fill-rule="nonzero"/></g></svg>